<svg width="21" height="19" viewBox="0 0 21 19" fill="none" xmlns="http://www.w3.org/2000/svg">
<mask id="path-1-inside-1_237_58" fill="white">
<path fill-rule="evenodd" clip-rule="evenodd" d="M10.6292 17.8242C16.3567 17.8242 20.9998 13.8341 20.9998 8.9121C20.9998 3.99008 16.3567 0 10.6292 0C4.90165 0 0.258551 3.99008 0.258551 8.9121C0.258551 11.0523 1.13641 13.0163 2.59956 14.5526C1.87911 15.7524 0.862775 17.0846 0.0761869 17.9932C-0.0961014 18.1922 0.0435244 18.5072 0.306651 18.4995C2.3877 18.4391 5.00493 18.0993 6.76993 17.1867C7.96281 17.5979 9.26525 17.8242 10.6292 17.8242Z"/>
</mask>
<path d="M2.59956 14.5526L3.88553 15.3248L4.47364 14.3455L3.68579 13.5182L2.59956 14.5526ZM0.0761869 17.9932L1.21028 18.975L1.21028 18.975L0.0761869 17.9932ZM0.306651 18.4995L0.263102 17.0001H0.2631L0.306651 18.4995ZM6.76993 17.1867L7.25882 15.7686L6.65154 15.5592L6.08095 15.8543L6.76993 17.1867ZM19.4998 8.9121C19.4998 12.8004 15.7497 16.3242 10.6292 16.3242V19.3242C16.9638 19.3242 22.4998 14.8678 22.4998 8.9121H19.4998ZM10.6292 1.5C15.7497 1.5 19.4998 5.02379 19.4998 8.9121H22.4998C22.4998 2.95638 16.9638 -1.5 10.6292 -1.5V1.5ZM1.75855 8.9121C1.75855 5.02379 5.50868 1.5 10.6292 1.5V-1.5C4.29461 -1.5 -1.24145 2.95638 -1.24145 8.9121H1.75855ZM3.68579 13.5182C2.45793 12.2289 1.75855 10.6253 1.75855 8.9121H-1.24145C-1.24145 11.4793 -0.185113 13.8037 1.51334 15.5871L3.68579 13.5182ZM1.21028 18.975C2.03808 18.0187 3.10994 16.6164 3.88553 15.3248L1.3136 13.7804C0.648274 14.8884 -0.312529 16.1504 -1.05791 17.0115L1.21028 18.975ZM0.2631 17.0001C1.40268 16.967 1.828 18.2614 1.21028 18.975L-1.0579 17.0115C-2.0202 18.1231 -1.31563 20.0473 0.350201 19.9989L0.2631 17.0001ZM6.08095 15.8543C4.62759 16.6058 2.29302 16.9412 0.263102 17.0001L0.3502 19.9989C2.48237 19.9369 5.38227 19.5929 7.45891 18.5191L6.08095 15.8543ZM10.6292 16.3242C9.43126 16.3242 8.29406 16.1255 7.25882 15.7686L6.28104 18.6048C7.63157 19.0704 9.09925 19.3242 10.6292 19.3242V16.3242Z" fill="#333333" mask="url(#path-1-inside-1_237_58)"/>
</svg>
