<svg width="16" height="16" viewBox="0 0 16 16" fill="none" xmlns="http://www.w3.org/2000/svg">
<path d="M15.3296 15.3066C14.9538 15.6887 14.3387 15.6915 13.9594 15.3128L9.02659 10.3872C8.56013 10.7129 8.05075 10.973 7.49846 11.1675C6.94617 11.3612 6.35134 11.4581 5.71397 11.4581C4.128 11.4581 2.77936 10.8992 1.66807 9.78132C0.556022 8.66345 0 7.3127 0 5.72906C0 4.14542 0.556022 2.79466 1.66807 1.6768C2.77936 0.558932 4.128 0 5.71397 0C7.29993 0 8.65267 0.558932 9.77218 1.6768C10.8917 2.79466 11.4514 4.14542 11.4514 5.72906C11.4514 6.3655 11.3581 6.95945 11.1716 7.51093C10.985 8.06167 10.7286 8.56247 10.4025 9.01334L15.3248 13.9481C15.6988 14.323 15.7009 14.9291 15.3296 15.3066ZM5.71397 9.50185C6.77153 9.50185 7.66974 9.13705 8.40862 8.40746C9.14675 7.67787 9.51581 6.78507 9.51581 5.72906C9.51581 4.67305 9.14675 3.78025 8.40862 3.05065C7.66974 2.32106 6.77153 1.95626 5.71397 1.95626C4.65715 1.95626 3.76304 2.32106 3.03163 3.05065C2.30096 3.78025 1.93563 4.67305 1.93563 5.72906C1.93563 6.78507 2.30096 7.67787 3.03163 8.40746C3.76304 9.13705 4.65715 9.50185 5.71397 9.50185Z" fill="white"/>
</svg>
