<svg width="20" height="20" viewBox="0 0 20 20" fill="none" xmlns="http://www.w3.org/2000/svg">
<path d="M13.2005 14.7006L14.7006 13.2005L11.05 9.57518V5.0498H8.94996V10.3996L13.2005 14.7006ZM10 20C8.61674 20 7.31669 19.7376 6.09984 19.2128C4.883 18.6879 3.82455 17.9755 2.92452 17.0755C2.02448 16.1754 1.31205 15.117 0.787231 13.9002C0.26241 12.6833 0 11.3833 0 10C0 8.61674 0.26241 7.31669 0.787231 6.09984C1.31205 4.883 2.02448 3.82455 2.92452 2.92452C3.82455 2.02448 4.883 1.31205 6.09984 0.787231C7.31669 0.26241 8.61674 0 10 0C11.3833 0 12.6833 0.26241 13.9002 0.787231C15.117 1.31205 16.1754 2.02448 17.0755 2.92452C17.9755 3.82455 18.6879 4.883 19.2128 6.09984C19.7376 7.31669 20 8.61674 20 10C20 11.3833 19.7376 12.6833 19.2128 13.9002C18.6879 15.117 17.9755 16.1754 17.0755 17.0755C16.1754 17.9755 15.117 18.6879 13.9002 19.2128C12.6833 19.7376 11.3833 20 10 20ZM10 17.8999C12.1833 17.8999 14.0458 17.1291 15.5874 15.5874C17.1291 14.0458 17.8999 12.1833 17.8999 10C17.8999 7.81671 17.1291 5.95424 15.5874 4.41258C14.0458 2.87091 12.1833 2.10008 10 2.10008C7.81671 2.10008 5.95424 2.87091 4.41258 4.41258C2.87091 5.95424 2.10008 7.81671 2.10008 10C2.10008 12.1833 2.87091 14.0458 4.41258 15.5874C5.95424 17.1291 7.81671 17.8999 10 17.8999Z" fill="#D19B31"/>
</svg>
