<svg width="20" height="20" viewBox="0 0 20 20" fill="none" xmlns="http://www.w3.org/2000/svg">
<path d="M8.94996 10.9504H11.05V5.0246H8.94996V10.9504ZM10 15.0258C10.2832 15.0258 10.5292 14.9298 10.738 14.7378C10.946 14.5458 11.05 14.2914 11.05 13.9746C11.05 13.6913 10.946 13.4457 10.738 13.2377C10.5292 13.0297 10.2832 12.9257 10 12.9257C9.71679 12.9257 9.47078 13.0297 9.26197 13.2377C9.05396 13.4457 8.94996 13.6913 8.94996 13.9746C8.94996 14.2914 9.05396 14.5458 9.26197 14.7378C9.47078 14.9298 9.71679 15.0258 10 15.0258ZM10 20C8.61674 20 7.31669 19.7376 6.09984 19.2128C4.883 18.6879 3.82455 17.9755 2.92452 17.0755C2.02448 16.1754 1.31205 15.117 0.787231 13.9002C0.26241 12.6833 0 11.3833 0 10C0 8.61674 0.26241 7.31669 0.787231 6.09984C1.31205 4.883 2.02448 3.82455 2.92452 2.92452C3.82455 2.02448 4.883 1.31205 6.09984 0.787231C7.31669 0.26241 8.61674 0 10 0C11.3833 0 12.6833 0.26241 13.9002 0.787231C15.117 1.31205 16.1754 2.02448 17.0755 2.92452C17.9755 3.82455 18.6879 4.883 19.2128 6.09984C19.7376 7.31669 20 8.61674 20 10C20 11.3833 19.7376 12.6833 19.2128 13.9002C18.6879 15.117 17.9755 16.1754 17.0755 17.0755C16.1754 17.9755 15.117 18.6879 13.9002 19.2128C12.6833 19.7376 11.3833 20 10 20ZM10 17.8999C12.1833 17.8999 14.0458 17.1291 15.5874 15.5874C17.1291 14.0458 17.8999 12.1833 17.8999 10C17.8999 7.81671 17.1291 5.95424 15.5874 4.41258C14.0458 2.87091 12.1833 2.10008 10 2.10008C7.81671 2.10008 5.95424 2.87091 4.41258 4.41258C2.87091 5.95424 2.10008 7.81671 2.10008 10C2.10008 12.1833 2.87091 14.0458 4.41258 15.5874C5.95424 17.1291 7.81671 17.8999 10 17.8999Z" fill="#C04444"/>
</svg>
