<svg width="7" height="10" viewBox="0 0 7 10" fill="none" xmlns="http://www.w3.org/2000/svg">
<path d="M1.20799 9.375C1.02799 9.19434 0.937988 8.986 0.937988 8.75C0.937988 8.514 1.02799 8.30567 1.20799 8.125L4.33299 5L1.20799 1.875C1.02799 1.69434 0.937988 1.486 0.937988 1.25C0.937988 1.014 1.02799 0.80567 1.20799 0.625004C1.38865 0.444337 1.59699 0.354004 1.83299 0.354004C2.06965 0.354004 2.27799 0.444337 2.45799 0.625004L6.20799 4.375C6.30532 4.47234 6.37499 4.573 6.41699 4.677C6.45832 4.781 6.47899 4.88867 6.47899 5C6.47899 5.11134 6.45832 5.219 6.41699 5.323C6.37499 5.427 6.30532 5.52767 6.20799 5.625L2.45799 9.375C2.27799 9.55567 2.06965 9.646 1.83299 9.646C1.59699 9.646 1.38865 9.55567 1.20799 9.375Z" fill="black"/>
</svg>
